<svg width="24" height="24" viewBox="0 0 24 24" fill="none" xmlns="http://www.w3.org/2000/svg">
<g clip-path="url(#clip0_93_965)">
<path d="M12.0106 5.88558C11.7995 5.88558 11.5908 5.89634 11.3851 5.91741C11.1795 5.93847 10.9766 5.96969 10.7773 6.01067C10.5779 6.05165 10.3821 6.1024 10.1902 6.16229L9.62688 6.36912L9.0906 6.62807L8.58453 6.936L8.11168 7.28968L7.67535 7.68603L7.27861 8.12198L6.92455 8.59429L6.61623 9.0999L6.35712 9.63557C6.27924 9.81879 6.20996 10.0066 6.14999 10.1984C6.09002 10.3901 6.03928 10.5859 5.99822 10.785C5.95716 10.9842 5.92595 11.1868 5.9048 11.3923C5.88366 11.5978 5.87305 11.8063 5.87305 12.0171C5.87305 12.228 5.88381 12.4365 5.9048 12.642C5.92567 12.8459 5.95685 13.0486 5.99822 13.2493C6.03928 13.4492 6.09002 13.6442 6.14999 13.836C6.20996 14.0277 6.27916 14.2155 6.35712 14.3988L6.61623 14.9344L6.92455 15.44L7.27861 15.9124L7.67535 16.3483L8.11168 16.7447L8.58453 17.0983L9.0906 17.4063L9.62688 17.6652L10.1902 17.872L10.7773 18.0237C10.9782 18.065 11.1811 18.0962 11.3851 18.117C11.5929 18.1382 11.8017 18.1488 12.0106 18.1488C12.2217 18.1488 12.4304 18.138 12.636 18.117C12.8401 18.0962 13.0429 18.065 13.2439 18.0237L13.831 17.872L14.3943 17.6652L14.9305 17.4063L15.4367 17.0983L15.9095 16.7447L16.3459 16.3483L16.7427 15.9124L17.0967 15.44L17.405 14.9344L17.6641 14.3988L17.8713 13.836C17.9313 13.6442 17.982 13.4485 18.0231 13.2493L18.1165 12.6419C18.1375 12.4364 18.1483 12.2279 18.1483 12.0171C18.1483 11.8062 18.1375 11.5977 18.1165 11.3922C18.0956 11.1883 18.0644 10.9857 18.0231 10.7849C17.982 10.585 17.9313 10.3901 17.8713 10.1983L17.6641 9.63549L17.405 9.09982L17.0967 8.59421L16.7427 8.1219L16.3459 7.68595L15.9095 7.2896L15.4367 6.93592L14.9305 6.62799L14.3943 6.36904L13.831 6.16221L13.2439 6.01059L12.636 5.91733C12.4282 5.89611 12.2195 5.88548 12.0106 5.8855V5.88558ZM12.0106 8.00196C12.1501 8.00196 12.2879 8.00888 12.4235 8.02256L12.8233 8.08307L13.2095 8.18149L13.5793 8.31581L13.9309 8.48419L14.2615 8.68448L14.5706 8.91491L14.8556 9.1734L15.1143 9.45803L15.3449 9.76681L15.5455 10.0979L15.7138 10.4493C15.7644 10.5695 15.8093 10.6928 15.8484 10.8188C15.8875 10.9448 15.9203 11.0736 15.9468 11.2047C15.9733 11.3359 15.9929 11.4694 16.0073 11.6049L16.0279 12.0175C16.0279 12.1569 16.021 12.2945 16.0073 12.4302C15.9936 12.5658 15.9735 12.6993 15.9468 12.8304C15.9201 12.9615 15.8872 13.0902 15.8484 13.2163L15.7138 13.5858L15.5455 13.9372L15.3449 14.2682L15.1143 14.5771L14.8556 14.8617L14.5706 15.1202L14.2615 15.3506L13.9309 15.5509L13.5793 15.7193L13.2095 15.8536L12.8233 15.952L12.4235 16.0125C12.2863 16.0262 12.1484 16.0331 12.0105 16.0331C11.8726 16.0331 11.7347 16.0262 11.5975 16.0125L11.1977 15.952C11.0664 15.9254 10.9376 15.8925 10.8114 15.8536L10.4416 15.7193L10.09 15.5509L9.75936 15.3506L9.45027 15.1202L9.16533 14.8617L8.90661 14.5771L8.67595 14.2682L8.47543 13.9372L8.30705 13.5858L8.17249 13.2163L8.07408 12.8304L8.01357 12.4302C7.99981 12.293 7.99293 12.1553 7.99297 12.0175C7.99293 11.8797 7.99981 11.742 8.01357 11.6049C8.02718 11.4694 8.0474 11.3358 8.07408 11.2047C8.10049 11.0746 8.13336 10.9458 8.17257 10.8189L8.30712 10.4493L8.4755 10.098L8.67603 9.76689L8.90669 9.45811L9.16541 9.17348L9.45035 8.91499L9.75943 8.68456L10.09 8.48427L10.4416 8.31588C10.5627 8.26506 10.6861 8.22023 10.8116 8.18156L11.1978 8.08315C11.3291 8.05655 11.4627 8.03625 11.5976 8.02264C11.7349 8.00889 11.8727 8.00201 12.0107 8.00203L12.0106 8.00196Z" fill="#9F9F9F"/>
<path d="M18.3972 4.14136C18.3484 4.14137 18.2997 4.14383 18.2512 4.14874C18.2027 4.15364 18.1545 4.16098 18.1068 4.17073C18.059 4.18047 18.0118 4.19261 17.9652 4.2071C17.9187 4.22159 17.8729 4.23843 17.828 4.25753C17.7831 4.27666 17.7392 4.29804 17.6964 4.32158C17.6537 4.34508 17.6121 4.37071 17.5719 4.39839C17.5316 4.4261 17.4928 4.45581 17.4555 4.48742C17.4183 4.51901 17.3826 4.55244 17.3487 4.58761C17.3147 4.6228 17.2825 4.65967 17.2522 4.69809C17.222 4.73652 17.1936 4.77645 17.1673 4.81773C17.141 4.85898 17.1167 4.90152 17.0946 4.94521C17.0725 4.98892 17.0526 5.03373 17.0349 5.07945C17.0172 5.12517 17.0019 5.17174 16.9888 5.219C16.9758 5.26626 16.9651 5.31414 16.9568 5.36247C16.9486 5.41079 16.9427 5.45949 16.9392 5.5084C16.9368 5.54305 16.9356 5.57777 16.9355 5.61251C16.9355 5.66158 16.938 5.71061 16.9429 5.75944C16.9477 5.80824 16.955 5.85676 16.9647 5.90483C16.9744 5.9529 16.9864 6.00045 17.0008 6.0473C17.0152 6.09417 17.032 6.14028 17.051 6.18547C17.0699 6.23066 17.0912 6.27488 17.1145 6.31794C17.1379 6.361 17.1634 6.40285 17.1909 6.44334C17.2184 6.48381 17.2479 6.52287 17.2793 6.56036C17.3107 6.59789 17.3439 6.63382 17.3789 6.66801C17.4138 6.70217 17.4505 6.73456 17.4887 6.76504C17.5268 6.79554 17.5665 6.8241 17.6075 6.85061C17.6486 6.87712 17.6909 6.90155 17.7343 6.92381C17.7777 6.94607 17.8222 6.96614 17.8676 6.98393C17.9131 7.0017 17.9593 7.01718 18.0063 7.0303C18.0532 7.04339 18.1008 7.05412 18.1488 7.06243C18.1968 7.07078 18.2452 7.07671 18.2938 7.0802C18.3282 7.08265 18.3627 7.08388 18.3972 7.08389C18.446 7.0839 18.4947 7.08146 18.5432 7.07658C18.5917 7.07168 18.6399 7.06434 18.6876 7.05459C18.7354 7.04485 18.7826 7.03271 18.8292 7.01822C18.8757 7.00373 18.9215 6.98689 18.9664 6.96779C19.0113 6.94868 19.0552 6.92733 19.098 6.90382C19.1407 6.88029 19.1823 6.85463 19.2225 6.82693C19.2628 6.79925 19.3016 6.76956 19.3389 6.73797C19.3761 6.70637 19.4118 6.6729 19.4457 6.63771C19.4797 6.60252 19.5119 6.56565 19.5422 6.52723C19.5724 6.4888 19.6008 6.44887 19.6271 6.40759C19.6534 6.36632 19.6777 6.32375 19.6998 6.28004C19.7219 6.23632 19.7418 6.19151 19.7595 6.14579C19.7772 6.10008 19.7925 6.0535 19.8056 6.00624C19.8186 5.95899 19.8293 5.9111 19.8376 5.86277C19.8458 5.81445 19.8517 5.76575 19.8552 5.71684C19.8576 5.68219 19.8588 5.64747 19.8589 5.61274C19.8589 5.56369 19.8564 5.51468 19.8515 5.46588C19.8467 5.41708 19.8394 5.36856 19.8297 5.32049C19.82 5.27242 19.808 5.22487 19.7936 5.17802C19.7792 5.13115 19.7624 5.08504 19.7434 5.03985C19.7245 4.99466 19.7032 4.95044 19.6799 4.90738C19.6565 4.86432 19.631 4.82247 19.6035 4.78198C19.576 4.74148 19.5464 4.7024 19.515 4.66488C19.4837 4.62735 19.4505 4.59143 19.4155 4.55724C19.3806 4.52307 19.3439 4.49069 19.3057 4.46021C19.2675 4.42973 19.2279 4.4012 19.1869 4.37471C19.1458 4.3482 19.1035 4.32377 19.0601 4.30151C19.0167 4.27925 18.9722 4.25918 18.9268 4.24139C18.8813 4.22362 18.8351 4.20814 18.7881 4.19502C18.7412 4.1819 18.6936 4.17115 18.6456 4.16281C18.5976 4.15449 18.5492 4.14858 18.5006 4.14512C18.4662 4.14267 18.4317 4.14144 18.3972 4.14143V4.14136Z" fill="#9F9F9F"/>
<path d="M10.847 0.021708C10.1794 0.0206316 9.58371 0.0233991 9.04858 0.030934L7.61388 0.0693773C7.18885 0.0878301 6.81333 0.111894 6.47626 0.143033C6.30773 0.158564 6.14873 0.175941 5.99803 0.195085C5.85463 0.21316 5.71161 0.234207 5.56908 0.25821C5.43337 0.281276 5.30459 0.306186 5.18111 0.33325C5.05763 0.360314 4.93969 0.389533 4.82589 0.420902C4.71465 0.451577 4.60428 0.485318 4.4949 0.522086C4.38772 0.558223 4.28315 0.596512 4.17989 0.637416C3.97337 0.719223 3.77193 0.811024 3.56449 0.913898C3.40487 0.993092 3.25741 1.07328 3.11732 1.15817C2.97723 1.24305 2.84452 1.3327 2.71459 1.43035C2.58077 1.5314 2.45179 1.6387 2.32808 1.75189C2.19875 1.86968 2.06666 1.99923 1.92942 2.14401C1.75696 2.32492 1.60711 2.49361 1.4741 2.65915C1.40759 2.74188 1.34531 2.82369 1.28665 2.90595C1.22863 2.98703 1.17317 3.0699 1.12034 3.15445C1.06806 3.23826 1.01854 3.3236 0.971182 3.41141C0.923081 3.50072 0.877622 3.59144 0.834862 3.68343C0.747365 3.87134 0.665711 4.07371 0.584212 4.2996C0.523749 4.4666 0.469608 4.63582 0.421904 4.8069C0.373235 4.98174 0.329947 5.16465 0.29135 5.36248C0.252753 5.56031 0.219077 5.77306 0.189475 6.00833C0.157577 6.26623 0.132094 6.52488 0.11305 6.78404C0.0915219 7.06898 0.0736843 7.38253 0.0590758 7.73151L0.0244769 8.89189L0.00587032 10.3064L0.000488281 12.0161L0.01625 14.5024L0.0654574 16.3861L0.103363 17.1219L0.150725 17.7316C0.165907 17.896 0.184904 18.0599 0.207698 18.2234C0.228457 18.3685 0.250754 18.4956 0.274743 18.6055C0.323418 18.829 0.380974 19.0506 0.447276 19.2695C0.51076 19.4791 0.583359 19.6859 0.664866 19.8892C0.744982 20.0883 0.832632 20.2804 0.927972 20.4652C1.02331 20.6501 1.12634 20.8277 1.23706 20.9983C1.34777 21.1689 1.46618 21.3325 1.59258 21.4891C1.71884 21.6458 1.85313 21.7958 1.99493 21.9385C2.13694 22.0815 2.28671 22.2176 2.44456 22.3469C2.60428 22.4777 2.77029 22.6006 2.94202 22.7152C3.1014 22.8217 3.2591 22.9193 3.41795 23.0089C3.57679 23.0985 3.73702 23.1797 3.90172 23.2536C4.06641 23.3275 4.23525 23.394 4.41163 23.4538C4.58801 23.5136 4.77176 23.5669 4.96598 23.6141C5.1602 23.6613 5.36579 23.7027 5.58338 23.7388C5.80097 23.775 6.03355 23.806 6.28205 23.8326C6.53055 23.8593 6.79565 23.8814 7.08052 23.8998C7.36538 23.9183 7.66985 23.9331 7.997 23.9449C8.50238 23.9632 9.2674 23.9739 10.1496 23.978L13.0056 23.9722L15.71 23.9343L16.7382 23.9054L17.4082 23.8709C17.5519 23.8593 17.6926 23.8454 17.8284 23.8292C17.9642 23.813 18.0981 23.7944 18.2285 23.7734C18.3589 23.7523 18.4864 23.7288 18.6117 23.7026C18.7355 23.6769 18.8586 23.6481 18.981 23.6163C19.1022 23.5855 19.2217 23.5506 19.3399 23.5134C19.4582 23.4763 19.5752 23.4361 19.6915 23.3931C19.8085 23.3498 19.9245 23.3036 20.0392 23.2546C20.1548 23.2054 20.2702 23.1528 20.386 23.097C20.5638 23.0113 20.707 22.9399 20.8327 22.8702C20.9509 22.8053 21.0648 22.7328 21.1736 22.6531C21.2809 22.574 21.3877 22.4841 21.5107 22.3707C21.6337 22.2574 21.7731 22.1208 21.9457 21.9482C22.0974 21.7965 22.2253 21.6648 22.3357 21.5449C22.446 21.425 22.539 21.3171 22.6205 21.2132C22.6982 21.1146 22.7705 21.0118 22.8373 20.9055C22.9024 20.8017 22.9624 20.6939 23.0235 20.5743C23.1155 20.3944 23.1973 20.2278 23.2705 20.067C23.3417 19.9121 23.4067 19.7544 23.4654 19.5944C23.5232 19.4355 23.5732 19.274 23.6154 19.1103C23.6587 18.942 23.6961 18.7642 23.7284 18.5692C23.7607 18.3742 23.788 18.162 23.8117 17.9251C23.8353 17.6881 23.8555 17.4262 23.8732 17.132L23.9201 16.1442L23.9604 14.9158L23.9891 13.5472L24.0002 12.1162L23.9745 9.30561L23.9401 8.04675L23.8932 6.96588L23.8348 6.1232C23.8136 5.88869 23.7907 5.70401 23.7664 5.57915C23.7395 5.44118 23.7094 5.30385 23.6763 5.16727C23.644 5.03436 23.6085 4.90226 23.5698 4.77107C23.5321 4.64326 23.4911 4.51643 23.4469 4.39071C23.4032 4.26654 23.357 4.14498 23.3085 4.02604C23.2601 3.9071 23.2076 3.79092 23.153 3.6772C23.0985 3.56349 23.0413 3.45254 22.9812 3.34413C22.9212 3.23572 22.8586 3.13 22.7931 3.0269C22.7277 2.92379 22.6596 2.8233 22.5886 2.7255C22.5181 2.62801 22.4445 2.53276 22.368 2.43987C22.2918 2.34749 22.2128 2.25754 22.131 2.17015C22.0493 2.08287 21.9649 1.9982 21.8778 1.91627C21.7907 1.83431 21.701 1.75496 21.6084 1.67823C21.5155 1.60124 21.4202 1.52717 21.3227 1.4561C21.2241 1.38432 21.1234 1.31555 21.0207 1.24989C20.9165 1.18331 20.8104 1.11982 20.7025 1.05952C20.5927 0.998213 20.4812 0.940063 20.3681 0.885143C20.1803 0.793879 20.0067 0.712919 19.8362 0.641107C19.6687 0.569837 19.4979 0.506539 19.3243 0.451427C19.1498 0.396453 18.9681 0.349321 18.7682 0.308648C18.5683 0.267975 18.3503 0.234068 18.1036 0.205236C17.8569 0.176403 17.5814 0.153107 17.2663 0.133732C16.9512 0.114356 16.5968 0.0991316 16.1922 0.0868298L14.817 0.0560756L13.0765 0.035547L10.8477 0.0218605L10.847 0.021708ZM12.0045 2.13624L15.2186 2.15454L16.4311 2.17792C16.765 2.1873 17.0198 2.19829 17.1692 2.21098C17.3637 2.22735 17.549 2.24788 17.7262 2.27249C17.8963 2.29597 18.0656 2.32518 18.2337 2.36006C18.3952 2.39389 18.5492 2.43233 18.6965 2.4757C18.8439 2.51906 18.9847 2.56765 19.1198 2.6214C19.2549 2.67514 19.3841 2.73427 19.5084 2.79901C19.6317 2.86326 19.7516 2.93396 19.8675 3.01083C19.9828 3.08733 20.094 3.16975 20.2019 3.25856C20.3099 3.34736 20.4145 3.44255 20.5167 3.54434C20.6246 3.65175 20.724 3.76116 20.8158 3.87403C20.9072 3.9862 20.9917 4.10377 21.069 4.2261C21.1471 4.35017 21.2175 4.47894 21.2798 4.61168C21.3434 4.747 21.4006 4.89001 21.452 5.04202C21.5034 5.19402 21.5491 5.35556 21.5896 5.52817C21.6321 5.71117 21.6676 5.8957 21.6962 6.08137C21.727 6.2782 21.7533 6.4881 21.7755 6.71284C21.7978 6.93758 21.8163 7.17724 21.8315 7.43365C21.8437 7.63933 21.8543 7.91074 21.8633 8.23128L21.8858 9.32422L21.903 12.0014L21.8834 14.6761L21.8599 15.7659L21.8275 16.5585C21.8051 16.9296 21.7814 17.2416 21.7531 17.5132C21.7389 17.649 21.7235 17.7746 21.7064 17.8925C21.6904 18.0038 21.6715 18.1147 21.6496 18.2251C21.6296 18.3257 21.6064 18.4257 21.58 18.5249C21.5548 18.6196 21.5263 18.7134 21.4948 18.8061C21.463 18.8993 21.4284 18.9915 21.391 19.0826C21.3516 19.1788 21.3099 19.2741 21.2661 19.3684C21.2271 19.4526 21.1861 19.5345 21.1428 19.6142C21.0999 19.6931 21.0544 19.7706 21.0062 19.8464C20.9585 19.9215 20.9086 19.9945 20.8563 20.0651C20.8043 20.1356 20.7498 20.2041 20.6928 20.2706C20.6361 20.3368 20.5769 20.4009 20.5155 20.4628C20.4539 20.5247 20.3901 20.5844 20.324 20.6421C20.2579 20.6997 20.1893 20.7551 20.1183 20.8085C20.0474 20.8618 19.9739 20.913 19.8981 20.9621C19.8222 21.0111 19.7439 21.0582 19.6631 21.1031C19.5823 21.148 19.4989 21.1909 19.4132 21.2317C19.326 21.2732 19.2376 21.312 19.148 21.3481C19.0555 21.3855 18.9619 21.4202 18.8674 21.4523C18.6752 21.5178 18.4724 21.5753 18.259 21.6249C18.0365 21.6763 17.812 21.7183 17.5861 21.7509C17.4992 21.7636 17.2995 21.7755 17.0135 21.7865L15.9236 21.8168L12.8335 21.857L9.59917 21.862L8.329 21.8485L7.50424 21.8228L6.89607 21.7801C6.70723 21.7642 6.53162 21.7465 6.36708 21.7264C6.20255 21.7063 6.04931 21.684 5.90515 21.6588C5.76854 21.6351 5.63275 21.6069 5.49804 21.5742C5.3752 21.5443 5.25362 21.5095 5.13359 21.4698C5.01788 21.4313 4.90724 21.389 4.7996 21.3425C4.69196 21.296 4.58739 21.245 4.48382 21.1894C4.38026 21.1337 4.27777 21.0733 4.17413 21.0074C4.09593 20.9577 4.02035 20.9074 3.94762 20.8541C3.87488 20.8009 3.80461 20.7477 3.73695 20.6921C3.66929 20.6364 3.60432 20.579 3.54166 20.52C3.47941 20.4612 3.4193 20.4002 3.36143 20.3372C3.30377 20.2743 3.24864 20.2095 3.19574 20.1425C3.14264 20.0752 3.09204 20.0059 3.04405 19.9349C2.99534 19.8628 2.94925 19.7889 2.90588 19.7134C2.86205 19.6373 2.82038 19.5586 2.78079 19.4774C2.74053 19.3947 2.70296 19.3106 2.66815 19.2254C2.63278 19.1387 2.59926 19.0492 2.56773 18.9568C2.50469 18.7719 2.44933 18.5751 2.4012 18.3652C2.35307 18.1553 2.31201 17.9323 2.27726 17.6947C2.2425 17.4571 2.21452 17.2053 2.19222 16.9375C2.17576 16.7403 2.16269 16.4332 2.1527 16.0456L2.13179 14.6675L2.13947 11.1541L2.19998 7.79694L2.24612 6.61412L2.27226 6.22315C2.28133 6.11874 2.29071 6.04139 2.30032 5.99495C2.332 5.84218 2.36391 5.70002 2.39689 5.56692C2.4277 5.44137 2.46198 5.31669 2.49969 5.19302C2.53552 5.07631 2.57327 4.96698 2.61363 4.86341C2.65256 4.76309 2.69594 4.66455 2.74365 4.56809C2.79024 4.47429 2.8403 4.38448 2.89465 4.29706C2.94901 4.20964 3.00768 4.12484 3.07165 4.04049C3.13562 3.95615 3.20451 3.87288 3.27947 3.78846C3.35444 3.70404 3.4354 3.61877 3.5232 3.53089C3.62553 3.42798 3.73209 3.32935 3.84259 3.23526C3.94693 3.14649 4.05574 3.06311 4.16859 2.98546C4.27954 2.90857 4.39333 2.84014 4.51181 2.77725C4.63029 2.71435 4.75347 2.65753 4.88302 2.6064C5.01257 2.55527 5.14866 2.50953 5.29283 2.46801C5.44428 2.42553 5.59741 2.38928 5.75184 2.35937C5.91422 2.32754 6.08668 2.29978 6.27082 2.27556C6.45497 2.25134 6.65087 2.23043 6.86031 2.21228C7.0064 2.19967 7.25812 2.18845 7.58958 2.17899L8.79593 2.15516L12.005 2.13555L12.0045 2.13624Z" fill="#9F9F9F"/>
</g>
<defs>
<clipPath id="clip0_93_965">
<rect width="24" height="24" fill="white"/>
</clipPath>
</defs>
</svg>
