<svg width="24" height="20" viewBox="0 0 24 20" fill="none" xmlns="http://www.w3.org/2000/svg">
<g clip-path="url(#clip0_93_972)">
<path d="M7.54753 19.4081C16.6042 19.4081 21.5577 11.9406 21.5577 5.46497C21.5577 5.2528 21.5577 5.04166 21.5434 4.83052C22.507 4.13712 23.3388 3.27854 24 2.29496C23.1013 2.69127 22.148 2.95118 21.1718 3.066C22.1997 2.45359 22.9691 1.49037 23.3366 0.355595C22.37 0.926385 21.3126 1.32864 20.2099 1.545C19.4675 0.759378 18.4856 0.239164 17.4162 0.0648593C16.3467 -0.109445 15.2494 0.0718782 14.294 0.58077C13.3385 1.08966 12.5783 1.89775 12.1308 2.87999C11.6833 3.86223 11.5736 4.96387 11.8186 6.01442C9.86091 5.91674 7.94575 5.41042 6.19744 4.52833C4.44913 3.64625 2.90675 2.40812 1.67044 0.894318C1.04077 1.97311 0.847899 3.25019 1.13111 4.46553C1.41431 5.68088 2.1523 6.74311 3.19481 7.43596C2.41123 7.41284 1.64473 7.20247 0.96 6.8226V6.88464C0.960299 8.01607 1.35384 9.11255 2.07387 9.98812C2.7939 10.8637 3.79608 11.4644 4.91044 11.6885C4.18551 11.8852 3.4249 11.914 2.68706 11.7725C3.0017 12.7462 3.61428 13.5977 4.43912 14.2079C5.26396 14.8181 6.2598 15.1565 7.28738 15.1757C5.54376 16.5395 3.38982 17.2798 1.17216 17.2776C0.780385 17.2768 0.388994 17.2532 0 17.2069C2.25181 18.645 4.87192 19.4079 7.54753 19.4043" fill="#9F9F9F"/>
</g>
<defs>
<clipPath id="clip0_93_972">
<rect width="24" height="19.5" fill="white"/>
</clipPath>
</defs>
</svg>
