<svg width="74" height="74" viewBox="0 0 74 74" fill="none" xmlns="http://www.w3.org/2000/svg">
<path d="M74 37C74 44.3179 71.83 51.4715 67.7644 57.5561C63.6988 63.6407 57.9202 68.3831 51.1593 71.1835C44.3984 73.984 36.959 74.7167 29.7817 73.2891C22.6044 71.8614 16.0116 68.3375 10.837 63.163C5.66251 57.9884 2.1386 51.3956 0.710945 44.2183C-0.716709 37.041 0.0160149 29.6016 2.81646 22.8407C5.6169 16.0798 10.3593 10.3012 16.4439 6.23562C22.5285 2.17001 29.6821 -8.72652e-08 37 0V3.7C30.4139 3.7 23.9757 5.65301 18.4995 9.31206C13.0234 12.9711 8.75521 18.1719 6.23481 24.2566C3.71441 30.3414 3.05496 37.0369 4.33985 43.4965C5.62474 49.9561 8.79626 55.8896 13.4533 60.5467C18.1104 65.2037 24.0439 68.3753 30.5035 69.6601C36.9631 70.945 43.6586 70.2856 49.7434 67.7652C55.8281 65.2448 61.0289 60.9766 64.6879 55.5005C68.347 50.0243 70.3 43.5861 70.3 37H74Z" fill="#7B61FF"/>
<circle cx="37" cy="37" r="37" fill="url(#paint0_linear_173_3007)"/>
<defs>
<linearGradient id="paint0_linear_173_3007" x1="37" y1="0" x2="37" y2="74" gradientUnits="userSpaceOnUse">
<stop stop-color="#F86424"/>
<stop offset="1" stop-color="#7B61FF" stop-opacity="0"/>
</linearGradient>
</defs>
</svg>
