<svg width="124" height="30" viewBox="0 0 124 30" fill="none" xmlns="http://www.w3.org/2000/svg">
<path d="M32.1208 24.1935V7.92091H25.8657V5.27317H41.5173V7.92091H35.2071V24.1935H32.1208ZM47.7787 24.5245C46.2907 24.5245 45.0415 24.2578 44.0311 23.7246C43.0391 23.173 42.2859 22.3364 41.7716 21.2148C41.2572 20.0932 41 18.6682 41 16.9398C41 15.193 41.2572 13.768 41.7716 12.6648C42.2859 11.5432 43.0483 10.7158 44.0587 10.1825C45.069 9.63091 46.3274 9.3551 47.8338 9.3551C49.2116 9.3551 50.3597 9.62172 51.2782 10.1549C52.2151 10.6698 52.9224 11.4604 53.4 12.5269C53.8776 13.5933 54.1164 14.9356 54.1164 16.5537V17.6569H43.9484C43.9852 18.6866 44.1413 19.5507 44.4169 20.2495C44.6924 20.9298 45.1058 21.4354 45.6569 21.7664C46.2264 22.079 46.9428 22.2353 47.8062 22.2353C48.339 22.2353 48.8166 22.1709 49.2391 22.0422C49.6616 21.8951 50.0199 21.6928 50.3138 21.4354C50.6077 21.1596 50.8373 20.8378 51.0027 20.4701C51.168 20.084 51.2507 19.6519 51.2507 19.1738H54.0613C54.0613 20.038 53.9144 20.8011 53.6204 21.463C53.3265 22.1249 52.8948 22.6857 52.3253 23.1454C51.7742 23.5867 51.1129 23.9269 50.3413 24.1659C49.5698 24.4049 48.7156 24.5245 47.7787 24.5245ZM44.0036 15.5608H51.1129C51.1129 14.8437 51.0302 14.2461 50.8649 13.768C50.7179 13.2716 50.4975 12.867 50.2036 12.5545C49.9096 12.2419 49.5606 12.0212 49.1564 11.8925C48.7523 11.7454 48.293 11.6719 47.7787 11.6719C47.0071 11.6719 46.3458 11.8098 45.7947 12.0856C45.2619 12.3614 44.8486 12.7935 44.5547 13.3819C44.2607 13.9519 44.077 14.6782 44.0036 15.5608ZM57.0294 24.1935V4.25269H59.8951V16.3054L65.5991 9.68607H68.9885L64.0836 15.3125L69.264 24.1935H65.9574L62.2374 17.4087L59.8951 19.7254V24.1935H57.0294ZM74.5796 24.5245C74.1203 24.5245 73.6243 24.4693 73.0916 24.359C72.5588 24.2487 72.0537 24.0464 71.576 23.7522C71.1168 23.458 70.7402 23.0535 70.4463 22.5387C70.1523 22.0054 70.0054 21.3159 70.0054 20.4701C70.0054 19.4772 70.235 18.659 70.6943 18.0154C71.1535 17.3719 71.7965 16.8662 72.6231 16.4985C73.4498 16.1307 74.4326 15.8733 75.5716 15.7262C76.7289 15.5791 77.9873 15.5056 79.3467 15.5056V14.0714C79.3467 13.5933 79.264 13.1704 79.0987 12.8027C78.9517 12.4349 78.667 12.1499 78.2445 11.9477C77.8403 11.7454 77.2525 11.6443 76.4809 11.6443C75.7094 11.6443 75.1031 11.7454 74.6623 11.9477C74.2397 12.1316 73.9366 12.3706 73.7529 12.6648C73.5876 12.9406 73.5049 13.244 73.5049 13.5749V13.9887H70.7494C70.731 13.8967 70.7218 13.8048 70.7218 13.7128C70.7218 13.6209 70.7218 13.5106 70.7218 13.3819C70.7218 12.5177 70.9606 11.7914 71.4383 11.203C71.9343 10.5962 72.6231 10.1366 73.5049 9.82398C74.3867 9.51139 75.4063 9.3551 76.5636 9.3551C77.8128 9.3551 78.8507 9.53898 79.6774 9.90672C80.5224 10.2561 81.1562 10.7617 81.5787 11.4237C82.0012 12.0856 82.2125 12.8854 82.2125 13.8232V21.1872C82.2125 21.5366 82.2951 21.7848 82.4605 21.9319C82.6442 22.079 82.8554 22.1525 83.0943 22.1525H84.0863V24.0832C83.8658 24.1751 83.5903 24.267 83.2596 24.359C82.9289 24.4509 82.5431 24.4969 82.1023 24.4969C81.6063 24.4969 81.1837 24.4049 80.8347 24.2211C80.504 24.0556 80.2285 23.8166 80.008 23.504C79.806 23.173 79.6682 22.8053 79.5947 22.4007H79.4294C79.0987 22.8237 78.6946 23.2006 78.2169 23.5316C77.7577 23.8441 77.2249 24.0832 76.6187 24.2487C76.0125 24.4325 75.3328 24.5245 74.5796 24.5245ZM75.3787 22.1525C75.9482 22.1525 76.4717 22.0698 76.9494 21.9043C77.4454 21.7204 77.8679 21.4722 78.2169 21.1596C78.566 20.8287 78.8415 20.4425 79.0436 20.0012C79.2457 19.5416 79.3467 19.0451 79.3467 18.5119V17.5466C78.0792 17.5466 76.9677 17.6201 76.0125 17.7672C75.0572 17.9143 74.3132 18.1901 73.7805 18.5946C73.2477 18.9808 72.9814 19.5232 72.9814 20.2219C72.9814 20.6448 73.0732 21.0033 73.2569 21.2975C73.4406 21.5733 73.7162 21.7848 74.0836 21.9319C74.451 22.079 74.8827 22.1525 75.3787 22.1525ZM86.0649 28.9649V9.68607H88.4072L88.6552 11.6719H88.848C89.3441 10.8996 89.9778 10.3204 90.7494 9.9343C91.5209 9.54817 92.3843 9.3551 93.3396 9.3551C94.5337 9.3551 95.5532 9.62172 96.3983 10.1549C97.2617 10.6882 97.923 11.5156 98.3823 12.6372C98.8415 13.7588 99.0712 15.2114 99.0712 16.9949C99.0712 18.7233 98.8324 20.1483 98.3547 21.2699C97.8955 22.3732 97.2433 23.1914 96.3983 23.7246C95.5532 24.2578 94.5796 24.5245 93.4774 24.5245C92.8344 24.5245 92.2374 24.4509 91.6863 24.3038C91.1352 24.1567 90.6392 23.9269 90.1983 23.6143C89.7758 23.3017 89.4083 22.9064 89.0961 22.4283H88.9307V28.9649H86.0649ZM92.4854 22.0422C93.3488 22.0422 94.0469 21.8767 94.5796 21.5457C95.1124 21.1964 95.4981 20.6632 95.7369 19.9461C95.9941 19.229 96.1227 18.3188 96.1227 17.2156V16.7191C96.1227 15.5608 95.9941 14.623 95.7369 13.9059C95.4798 13.1888 95.0848 12.6648 94.5521 12.3338C94.0377 12.0028 93.3672 11.8374 92.5405 11.8374C91.6955 11.8374 91.0066 12.0304 90.4738 12.4166C89.9411 12.7843 89.5461 13.3359 89.2889 14.0714C89.0501 14.8069 88.9307 15.6987 88.9307 16.7467V17.1328C88.9307 17.997 89.0134 18.7417 89.1787 19.3669C89.3441 19.992 89.5829 20.5069 89.8952 20.9114C90.2075 21.2975 90.5841 21.5825 91.0249 21.7664C91.4658 21.9503 91.9526 22.0422 92.4854 22.0422ZM105.632 24.5245C104.806 24.5245 104.153 24.3682 103.676 24.0556C103.217 23.7246 102.886 23.3109 102.684 22.8145C102.5 22.2996 102.408 21.7572 102.408 21.1872V12.058H100.59V9.68607H102.463L102.987 5.63172H105.274V9.68607H107.892V12.058H105.274V20.8562C105.274 21.2791 105.366 21.6009 105.55 21.8216C105.733 22.0422 106.036 22.1525 106.459 22.1525H107.892V24.0832C107.708 24.1567 107.479 24.2211 107.203 24.2762C106.946 24.3498 106.679 24.4049 106.404 24.4417C106.128 24.4969 105.871 24.5245 105.632 24.5245ZM114.083 24.5245C113.624 24.5245 113.128 24.4693 112.595 24.359C112.062 24.2487 111.557 24.0464 111.08 23.7522C110.62 23.458 110.244 23.0535 109.95 22.5387C109.656 22.0054 109.509 21.3159 109.509 20.4701C109.509 19.4772 109.739 18.659 110.198 18.0154C110.657 17.3719 111.3 16.8662 112.127 16.4985C112.953 16.1307 113.936 15.8733 115.075 15.7262C116.232 15.5791 117.491 15.5056 118.85 15.5056V14.0714C118.85 13.5933 118.768 13.1704 118.602 12.8027C118.455 12.4349 118.171 12.1499 117.748 11.9477C117.344 11.7454 116.756 11.6443 115.984 11.6443C115.213 11.6443 114.607 11.7454 114.166 11.9477C113.743 12.1316 113.44 12.3706 113.256 12.6648C113.091 12.9406 113.008 13.244 113.008 13.5749V13.9887H110.253C110.235 13.8967 110.225 13.8048 110.225 13.7128C110.225 13.6209 110.225 13.5106 110.225 13.3819C110.225 12.5177 110.464 11.7914 110.942 11.203C111.438 10.5962 112.127 10.1366 113.008 9.82398C113.89 9.51139 114.91 9.3551 116.067 9.3551C117.316 9.3551 118.354 9.53898 119.181 9.90672C120.026 10.2561 120.66 10.7617 121.082 11.4237C121.505 12.0856 121.716 12.8854 121.716 13.8232V21.1872C121.716 21.5366 121.799 21.7848 121.964 21.9319C122.148 22.079 122.359 22.1525 122.598 22.1525H123.59V24.0832C123.369 24.1751 123.094 24.267 122.763 24.359C122.432 24.4509 122.047 24.4969 121.606 24.4969C121.11 24.4969 120.687 24.4049 120.338 24.2211C120.008 24.0556 119.732 23.8166 119.512 23.504C119.31 23.173 119.172 22.8053 119.098 22.4007H118.933C118.602 22.8237 118.198 23.2006 117.72 23.5316C117.261 23.8441 116.728 24.0832 116.122 24.2487C115.516 24.4325 114.836 24.5245 114.083 24.5245ZM114.882 22.1525C115.452 22.1525 115.975 22.0698 116.453 21.9043C116.949 21.7204 117.371 21.4722 117.72 21.1596C118.07 20.8287 118.345 20.4425 118.547 20.0012C118.749 19.5416 118.85 19.0451 118.85 18.5119V17.5466C117.583 17.5466 116.471 17.6201 115.516 17.7672C114.561 17.9143 113.817 18.1901 113.284 18.5946C112.751 18.9808 112.485 19.5232 112.485 20.2219C112.485 20.6448 112.577 21.0033 112.76 21.2975C112.944 21.5733 113.22 21.7848 113.587 21.9319C113.955 22.079 114.386 22.1525 114.882 22.1525Z" fill="white"/>
<path d="M19.1054 9.38708V14.9032L14.3291 17.6613V12.1451L19.1054 9.38708Z" fill="white"/>
<path d="M0 9.38708V14.9032L4.7763 17.6613V12.1451L0 9.38708Z" fill="white"/>
<path d="M9.55259 9.38709L4.7763 12.1452L0 9.38709L4.7763 6.62903L9.55259 9.38709Z" fill="white"/>
<path d="M14.3289 6.62904L9.55264 9.3871L4.77637 6.62904L9.55264 3.87097L14.3289 6.62904Z" fill="white"/>
<path d="M19.1053 9.38709L14.329 12.1452L9.55273 9.38709L14.329 6.62903L19.1053 9.38709Z" fill="white"/>
<path d="M19.1054 25.9354V20.4193L14.3291 17.6613V23.1774L19.1054 25.9354Z" fill="white"/>
<path d="M0 25.9354V20.4193L4.7763 17.6613V23.1774L0 25.9354Z" fill="white"/>
</svg>
