<svg width="63" height="62" viewBox="0 0 63 62" fill="none" xmlns="http://www.w3.org/2000/svg">
<rect x="0.5" width="62" height="62" rx="5" fill="#00D8FF"/>
<path d="M31.5 33.4741C32.8807 33.4741 34 32.3548 34 30.9741C34 29.5934 32.8807 28.4741 31.5 28.4741C30.1193 28.4741 29 29.5934 29 30.9741C29 32.3548 30.1193 33.4741 31.5 33.4741Z" fill="white"/>
<path d="M31.5 36.706C28.4951 36.7787 25.4978 36.3737 22.62 35.506C21.2906 35.0846 20.0507 34.4208 18.963 33.548C18.5479 33.2499 18.2023 32.8655 17.9497 32.4212C17.6972 31.9769 17.5438 31.4832 17.5 30.974C17.5 29.321 19.316 27.701 22.358 26.641C25.3127 25.7018 28.3999 25.2466 31.5 25.293C34.5587 25.2503 37.6045 25.6973 40.522 26.617C41.8023 27.0252 43.0001 27.6569 44.06 28.483C44.468 28.7673 44.8084 29.1377 45.0573 29.5682C45.3061 29.9987 45.4573 30.4786 45.5 30.974C45.5 32.692 43.47 34.433 40.2 35.515C37.3779 36.3544 34.4438 36.7561 31.5 36.706ZM31.5 26.489C28.5341 26.4494 25.5808 26.8821 22.751 27.771C19.951 28.748 18.696 30.084 18.696 30.971C18.696 31.899 20.045 33.358 23.007 34.371C25.7601 35.1969 28.6266 35.5813 31.5 35.51C34.3164 35.5604 37.1239 35.1793 39.825 34.38C42.9 33.361 44.3 31.9 44.3 30.974C44.2495 30.6562 44.1337 30.3524 43.9599 30.0816C43.7861 29.8109 43.558 29.5791 43.29 29.401C42.3418 28.6682 41.2717 28.1083 40.129 27.747C37.338 26.8708 34.425 26.4461 31.5 26.489Z" fill="white"/>
<path d="M25.8201 43.443C25.3536 43.4537 24.8926 43.3405 24.4841 43.115C23.0521 42.289 22.5561 39.907 23.1571 36.742C23.8197 33.7131 24.9679 30.8113 26.5571 28.149C28.0478 25.4781 29.9563 23.0629 32.2101 20.995C33.2033 20.0897 34.349 19.3675 35.5941 18.862C36.0445 18.6509 36.5357 18.5415 37.0331 18.5415C37.5305 18.5415 38.0217 18.6509 38.4721 18.862C39.9611 19.72 40.4541 22.348 39.7591 25.721C39.076 28.5855 37.9577 31.3284 36.4431 33.854C35.0048 36.4933 33.1565 38.8875 30.9671 40.947C29.9379 41.8878 28.7434 42.6299 27.4441 43.136C26.9239 43.329 26.3749 43.4328 25.8201 43.443ZM27.5931 28.743C26.0772 31.2923 24.9768 34.0667 24.3331 36.962C23.7801 39.877 24.3111 41.63 25.0831 42.076C25.8831 42.539 27.8251 42.1 30.1831 40.04C32.2731 38.0669 34.0373 35.7752 35.4101 33.25C36.861 30.8355 37.9338 28.2131 38.5911 25.474C39.2451 22.299 38.6801 20.355 37.8781 19.893C37.5775 19.7778 37.2563 19.7262 36.9348 19.7416C36.6132 19.7569 36.2984 19.8387 36.0101 19.982C34.9018 20.4393 33.8828 21.0886 33.0001 21.9C30.8468 23.8808 29.0238 26.1929 27.6001 28.749L27.5931 28.743Z" fill="white"/>
<path d="M37.177 43.456C35.822 43.456 34.101 42.636 32.309 41.095C30.0157 39.0083 28.075 36.5644 26.562 33.858C24.9928 31.2323 23.8537 28.3725 23.188 25.387C22.8994 24.0735 22.8459 22.7192 23.03 21.387C23.0726 20.8928 23.2231 20.414 23.4709 19.9842C23.7186 19.5545 24.0577 19.1844 24.464 18.9C25.951 18.039 28.474 18.924 31.049 21.21C33.1896 23.2322 35.0074 25.5707 36.439 28.144C38.0073 30.7083 39.1583 33.5055 39.849 36.431C40.1502 37.7927 40.1966 39.1984 39.986 40.577C39.9359 41.0854 39.7765 41.5769 39.5186 42.018C39.2607 42.459 38.9106 42.839 38.492 43.132C38.0902 43.3547 37.6364 43.4665 37.177 43.456ZM27.597 33.256C29.0485 35.8424 30.9023 38.1813 33.089 40.185C35.338 42.12 37.122 42.536 37.889 42.085C38.689 41.62 39.279 39.722 38.671 36.651C38.0049 33.8579 36.9009 31.1879 35.4 28.74C34.0339 26.2771 32.2988 24.0378 30.255 22.1C27.831 19.948 25.865 19.467 25.064 19.931C24.8144 20.1339 24.6095 20.3863 24.4623 20.6724C24.3152 20.9584 24.2289 21.2719 24.209 21.593C24.05 22.7811 24.1018 23.9879 24.362 25.158C25.0023 28.0131 26.0948 30.7476 27.598 33.258L27.597 33.256Z" fill="white"/>
</svg>
