<svg width="64" height="64" viewBox="0 0 64 64" fill="none" xmlns="http://www.w3.org/2000/svg">
<rect width="64" height="64" rx="8" fill="#76A80A"/>
<g clip-path="url(#clip0_257_46)">
<mask id="mask0_257_46" style="mask-type:alpha" maskUnits="userSpaceOnUse" x="8" y="8" width="48" height="48">
<rect x="8" y="8" width="48" height="48" fill="#D9D9D9"/>
</mask>
<g mask="url(#mask0_257_46)">
<path d="M17.2308 46C16.3103 46 15.5417 45.6917 14.925 45.075C14.3083 44.4583 14 43.6898 14 42.7693V21.2307C14 20.3102 14.3083 19.5417 14.925 18.925C15.5417 18.3083 16.3103 18 17.2308 18H46.7693C47.6898 18 48.4583 18.3083 49.075 18.925C49.6917 19.5417 50 20.3102 50 21.2307V42.7693C50 43.6898 49.6917 44.4583 49.075 45.075C48.4583 45.6917 47.6898 46 46.7693 46H17.2308ZM17.2308 44H46.7693C47.0769 44 47.359 43.8718 47.6154 43.6154C47.8718 43.359 48 43.0769 48 42.7693V24H16V42.7693C16 43.0769 16.1282 43.359 16.3846 43.6154C16.641 43.8718 16.9231 44 17.2308 44ZM23 40.577L21.6231 39.2L26.7731 34L21.5731 28.8L23 27.423L29.577 34L23 40.577ZM33 41V39H43V41H33Z" fill="white"/>
</g>
</g>
<defs>
<clipPath id="clip0_257_46">
<rect width="48" height="48" fill="white" transform="translate(8 8)"/>
</clipPath>
</defs>
</svg>
